<svg xmlns="http://www.w3.org/2000/svg" viewBox="0 0 297 291"><defs><style>.cls-1{fill:#fff;}.cls-2{fill:none;}</style></defs><title>logo</title><g id="handles"><rect class="cls-1" x="62" width="25" height="64" rx="12" ry="12"/><rect class="cls-1" x="214" width="25" height="64" rx="12" ry="12"/></g><g id="outside"><path class="cls-1" d="M280,30H253.91c.06.66.09,1.33.09,2V60a24.07,24.07,0,0,1-24,24h-5a24.07,24.07,0,0,1-24-24V32c0-.67,0-1.34.09-2H101.91c.06.66.09,1.33.09,2V60A24.07,24.07,0,0,1,78,84H73A24.07,24.07,0,0,1,49,60V32c0-.67,0-1.34.09-2H19A18.05,18.05,0,0,0,1,48V277a18.05,18.05,0,0,0,18,18H280a18.05,18.05,0,0,0,18-18V48A18.05,18.05,0,0,0,280,30Zm5,245a5,5,0,0,1-5,5H22a5,5,0,0,1-5-5V105a5,5,0,0,1,5-5H280a5,5,0,0,1,5,5Z" transform="translate(-1 -4)"/><rect class="cls-2" x="200" y="4" width="53" height="76" rx="24" ry="24"/></g><g id="inside"><rect class="cls-1" x="160" y="125" width="34" height="31" rx="3" ry="3"/><rect class="cls-1" x="216" y="125" width="34" height="31" rx="3" ry="3"/><rect class="cls-1" x="160" y="174" width="34" height="31" rx="3" ry="3"/><rect class="cls-1" x="216" y="174" width="34" height="31" rx="3" ry="3"/><rect class="cls-1" x="160" y="222" width="34" height="31" rx="3" ry="3"/><rect class="cls-1" x="216" y="222" width="34" height="31" rx="3" ry="3"/><rect class="cls-1" x="104" y="174" width="34" height="31" rx="3" ry="3"/><rect class="cls-1" x="104" y="222" width="34" height="31" rx="3" ry="3"/><rect class="cls-1" x="47" y="174" width="34" height="31" rx="3" ry="3"/><rect class="cls-1" x="47" y="222" width="34" height="31" rx="3" ry="3"/></g></svg>